<svg width="77" height="77" viewBox="0 0 77 77" fill="none" xmlns="http://www.w3.org/2000/svg">
<path d="M38.5 76C59.2108 76 76 59.2108 76 38.5C76 17.7893 59.2108 1 38.5 1C17.7893 1 1 17.7893 1 38.5C1 59.2108 17.7893 76 38.5 76Z" stroke="#21A8B0" stroke-width="1.5" stroke-linecap="round" stroke-linejoin="round"/>
<path d="M26 55.1667H38.5H42.6667C45.4446 55.1667 51 53.5 51 46.8333C51 40.1667 45.4446 38.5 42.6667 38.5H34.3333C31.5554 38.5 26 36.8333 26 30.1667C26 23.5 31.5554 21.8333 34.3333 21.8333H38.5H51" stroke="#21A8B0" stroke-width="1.5" stroke-linecap="round" stroke-linejoin="round"/>
<path d="M38.5 55.1667V63.5" stroke="#21A8B0" stroke-width="1.5" stroke-linecap="round" stroke-linejoin="round"/>
<path d="M38.5 21.8333V13.5" stroke="#21A8B0" stroke-width="1.5" stroke-linecap="round" stroke-linejoin="round"/>
</svg>
